<svg width="96" height="295" viewBox="0 0 96 295" fill="none" xmlns="http://www.w3.org/2000/svg">
<path d="M47.9805 63.1756C48.4526 60.1269 50.0582 57.3672 52.4777 55.4458C54.8972 53.5244 57.9533 52.582 61.0378 52.8062L61.6792 52.851C68.5028 53.7466 71.5491 60.0347 70.4653 66.8154L68.086 90.8804L67.9705 95.8508L51.713 97.3221L52.0658 86.8184C52.0658 86.8184 45.5499 85.3215 45.9475 78.7455C46.1143 75.5663 47.0699 69.0543 47.9805 63.1756Z" fill="#FFBF9D"/>
<path d="M52.0072 86.8056C55.0704 87.025 58.1322 86.3587 60.8254 84.8865C60.8254 84.8865 58.5359 89.633 52.0072 88.5647V86.8056Z" fill="#FF9A6C"/>
<path d="M50.5319 69.7321C50.5121 69.9766 50.5889 70.2191 50.7459 70.408C50.9028 70.5968 51.1275 70.7169 51.3721 70.7429C51.4909 70.76 51.6119 70.7536 51.7282 70.7239C51.8445 70.6943 51.9537 70.6419 52.0497 70.57C52.1457 70.4981 52.2264 70.4079 52.2873 70.3048C52.3482 70.2016 52.3881 70.0874 52.4046 69.9688C52.4261 69.7233 52.3502 69.4791 52.193 69.2889C52.0359 69.0987 51.8102 68.9776 51.5645 68.9517C51.4452 68.9346 51.3237 68.9413 51.207 68.9713C51.0904 69.0014 50.9808 69.0543 50.8848 69.1269C50.7888 69.1994 50.7081 69.2903 50.6475 69.3942C50.587 69.4981 50.5477 69.613 50.5319 69.7321Z" fill="#263238"/>
<path d="M49.1603 66.4956C49.2693 66.6236 50.0197 66.1502 51.0329 66.227C52.0462 66.3037 52.7517 66.8667 52.8671 66.7451C52.9826 66.6236 52.8222 66.4637 52.5208 66.2078C52.1035 65.8729 51.593 65.6741 51.0586 65.6385C50.5327 65.6033 50.0087 65.7307 49.5579 66.0031C49.2308 66.2206 49.109 66.4381 49.1603 66.4956Z" fill="#263238"/>
<path d="M60.0241 70.6344C60.0026 70.8782 60.0779 71.1207 60.2338 71.3098C60.3897 71.4988 60.6138 71.6192 60.8578 71.6451C60.9769 71.664 61.0985 71.6589 61.2155 71.6299C61.3325 71.601 61.4424 71.5488 61.5388 71.4766C61.6351 71.4044 61.7159 71.3135 61.7763 71.2095C61.8367 71.1055 61.8755 70.9903 61.8904 70.871C61.9104 70.6268 61.8346 70.3844 61.6792 70.1948C61.5237 70.0051 61.3006 69.8829 61.0567 69.8539C60.9371 69.835 60.815 69.8404 60.6977 69.8697C60.5803 69.8991 60.4701 69.9518 60.3736 70.0246C60.2772 70.0975 60.1965 70.1891 60.1365 70.2939C60.0764 70.3987 60.0382 70.5145 60.0241 70.6344Z" fill="#263238"/>
<path d="M59.1013 67.4035C59.2104 67.5378 59.9607 67.0644 60.974 67.1348C61.9873 67.2052 62.6927 67.7745 62.8082 67.6594C62.9236 67.5442 62.7633 67.3779 62.4554 67.1156C62.0406 66.7817 61.5318 66.5849 60.9996 66.5527C60.4731 66.5101 59.9469 66.638 59.4989 66.9173C59.1719 67.1348 59.05 67.3651 59.1013 67.4035Z" fill="#263238"/>
<path d="M54.8807 74.6258C54.3591 74.4211 53.8141 74.2814 53.2582 74.21C53.0017 74.1652 52.758 74.0948 52.7259 73.9157C52.7262 73.6489 52.8066 73.3882 52.9568 73.1673L53.8674 71.2482C55.1501 68.5296 56.0672 66.2843 55.9582 66.2331C55.8491 66.1819 54.7332 68.3504 53.4634 71.0691C53.162 71.7088 52.867 72.3485 52.5912 72.9882C52.4042 73.2876 52.3293 73.6433 52.3796 73.9925C52.4105 74.0856 52.4624 74.1703 52.5313 74.2402C52.6003 74.3101 52.6844 74.3632 52.7772 74.3955C52.918 74.4455 53.0645 74.4777 53.2133 74.4914C53.7612 74.6065 54.3215 74.6516 54.8807 74.6258Z" fill="#263238"/>
<path d="M57.8048 75.5407C57.6445 75.5407 57.5611 76.6153 56.567 77.3254C55.573 78.0355 54.4058 77.8308 54.3865 77.9651C54.3673 78.0994 54.6302 78.1954 55.1241 78.2465C55.7676 78.3025 56.4102 78.1304 56.939 77.7604C57.4458 77.4043 57.7933 76.8649 57.9074 76.2571C57.9844 75.8221 57.8818 75.5407 57.8048 75.5407Z" fill="#263238"/>
<path d="M59.1269 63.4317C59.2103 63.7131 60.23 63.6555 61.4036 63.8858C62.5772 64.1161 63.52 64.5255 63.6995 64.2696C63.7765 64.1545 63.629 63.8858 63.257 63.5916C62.7635 63.2305 62.1944 62.9854 61.5925 62.8746C60.9906 62.7638 60.3713 62.7902 59.781 62.9519C59.3321 63.0926 59.0948 63.2973 59.1269 63.4317Z" fill="#263238"/>
<path d="M49.7509 63.5977C49.9112 63.8407 50.6231 63.6552 51.4632 63.7C52.3033 63.7448 53.0024 63.9687 53.1819 63.7384C53.2653 63.6296 53.1819 63.393 52.8741 63.1499C52.4745 62.8618 51.9988 62.6973 51.5062 62.6768C51.0136 62.6564 50.5258 62.7808 50.1036 63.0347C49.7958 63.2522 49.6803 63.4825 49.7509 63.5977Z" fill="#263238"/>
<path d="M68.938 73.1228C68.9629 72.8825 69.0366 72.6497 69.1547 72.4388C69.2728 72.2278 69.4327 72.043 69.6248 71.8958C69.8168 71.7485 70.0369 71.6418 70.2717 71.5823C70.5065 71.5227 70.7509 71.5114 70.9902 71.5492C72.2151 71.7539 73.5555 72.5471 73.2605 75.0739C72.7923 79.5517 68.3736 78.1572 68.38 78.0292C68.3864 77.9013 68.7199 75.0035 68.938 73.1228Z" fill="#FFBF9D"/>
<path d="M69.5411 76.4488C69.5411 76.4488 69.6117 76.5128 69.7399 76.5895C69.9181 76.6871 70.1272 76.7123 70.3235 76.6599C70.634 76.5086 70.8979 76.2767 71.0875 75.9885C71.2771 75.7004 71.3853 75.3666 71.4009 75.0223C71.4498 74.6398 71.4148 74.2513 71.2983 73.8837C71.2677 73.7431 71.2041 73.6118 71.1126 73.5006C71.0212 73.3894 70.9046 73.3015 70.7724 73.244C70.6844 73.212 70.588 73.2111 70.4993 73.2414C70.4107 73.2716 70.335 73.3312 70.285 73.4103C70.2145 73.5318 70.2337 73.6214 70.2081 73.6278C70.1824 73.6342 70.1183 73.5446 70.2081 73.3655C70.2413 73.2556 70.3145 73.1621 70.4133 73.1032C70.4796 73.0622 70.5535 73.0348 70.6306 73.0227C70.7077 73.0106 70.7865 73.0141 70.8622 73.0329C71.031 73.0883 71.1838 73.1835 71.3078 73.3105C71.4317 73.4374 71.5231 73.5924 71.5741 73.7621C71.7245 74.1709 71.7708 74.6105 71.7088 75.0415C71.5869 75.9371 71.0675 76.7367 70.3684 76.8518C70.2439 76.8759 70.1156 76.8711 69.9933 76.8378C69.871 76.8045 69.7579 76.7437 69.663 76.6599C69.5347 76.5639 69.5219 76.4616 69.5411 76.4488Z" fill="#FF9A6C"/>
<path d="M72.5357 68.5619C72.1637 69.8413 72.2984 71.9842 71.1504 71.69C68.8609 71.1143 69.4125 75.7904 68.3158 75.3298C67.2191 74.8692 66.2764 73.5515 66.2059 70.6729C66.1225 67.0267 67.5911 64.3912 66.1545 60.2076C65.6944 59.3741 65.0265 58.673 64.2154 58.1721C63.4043 57.6713 62.4774 57.3875 61.5242 57.3482C60.5635 57.3272 59.6134 57.5512 58.7638 57.999C57.9142 58.4467 57.1933 59.1035 56.6694 59.9069C56.4642 58.6276 55.8421 56.7085 54.7069 56.0688C54.138 55.7579 53.49 55.6206 52.8435 55.6741C52.197 55.7276 51.5805 55.9694 51.0707 56.3695C50.5833 56.7958 50.2668 57.3834 50.1796 58.0241C50.0924 58.6648 50.2403 59.3153 50.5961 59.8558C50.3332 59.9351 50.0518 59.9282 49.7932 59.8361C49.5346 59.7439 49.3125 59.5715 49.1595 59.344C49.1354 59.6416 49.1737 59.9408 49.272 60.2228C49.3703 60.5047 49.5264 60.7632 49.7303 60.9816C49.2576 60.8634 48.8447 60.5767 48.5695 60.1756C48.6849 60.7066 48.794 61.2311 48.9094 61.7556C46.9854 61.8068 45.0999 59.9453 44.5612 58.2949C43.7532 55.781 44.3752 53.2478 45.7862 51.0153C46.4756 49.8868 47.4383 48.9493 48.5858 48.2887C49.7333 47.6281 51.0288 47.2657 52.3533 47.2347C54.9955 47.2347 57.2081 48.5141 58.2278 50.9385C59.9465 49.7295 63.4225 49.3073 65.3337 50.1773C66.2897 50.623 67.1153 51.3057 67.7317 52.1601C68.348 53.0146 68.7346 54.0123 68.8545 55.0581C69.4698 54.8432 70.1312 54.7951 70.7712 54.9187C71.4113 55.0423 72.0069 55.3333 72.4972 55.7618L72.7409 55.9729C73.4131 56.6123 73.912 57.4111 74.1912 58.2947C74.4705 59.1783 74.5209 60.1181 74.3378 61.0264C74.1967 61.762 73.9402 62.5169 73.7927 63.1054C73.3502 64.8773 72.5357 68.5619 72.5357 68.5619Z" fill="#263238"/>
<path d="M48.8587 59.2544C48.8587 59.2544 48.801 59.2544 48.7048 59.1329C48.5653 59.0093 48.4386 58.8722 48.3264 58.7235C47.9033 58.1646 47.6416 57.501 47.5696 56.8044C47.5058 56.2895 47.5529 55.767 47.7077 55.2717C47.8625 54.7764 48.1216 54.3197 48.4675 53.9322C48.8933 53.4567 49.4288 53.0917 50.0277 52.8688C50.6266 52.6459 51.2709 52.5718 51.905 52.6529C52.5581 52.7528 53.1805 52.9977 53.7263 53.3693C54.2413 53.6973 54.7021 54.103 55.0923 54.5719C56.1878 55.9143 56.7575 57.6078 56.6956 59.3376C56.6956 59.5807 56.6956 59.7662 56.6379 59.8941C56.6333 59.9595 56.6203 60.0239 56.5994 60.086C56.6621 59.1589 56.5733 58.2277 56.3365 57.329C56.064 56.3618 55.5922 55.462 54.9512 54.6871C54.1958 53.7166 53.1096 53.0565 51.8985 52.832C51.2941 52.758 50.6806 52.8305 50.1102 53.0432C49.5397 53.2558 49.029 53.6025 48.6214 54.0538C48.2887 54.4223 48.0374 54.8565 47.8838 55.3282C47.7303 55.7998 47.6778 56.2985 47.7299 56.7916C47.7895 57.4647 48.0238 58.1107 48.4098 58.6659C48.6791 59.0497 48.8715 59.2416 48.8587 59.2544Z" fill="#455A64"/>
<path d="M47.9737 61.2629C47.9203 61.1961 47.875 61.123 47.839 61.0454C47.7557 60.8983 47.6338 60.6808 47.4863 60.4057C47.0556 59.6048 46.7013 58.7653 46.4281 57.8982C46.2478 57.2934 46.1486 56.6675 46.1331 56.0367C46.1097 55.3069 46.2431 54.5806 46.5243 53.9065C46.8483 53.1569 47.3857 52.5185 48.0699 52.0706C48.801 51.5961 49.6428 51.3185 50.5134 51.2646C51.3873 51.2178 52.2614 51.3551 53.0786 51.6676C53.829 51.9583 54.5316 52.3593 55.1629 52.8574C56.2667 53.671 57.0677 54.8278 57.4396 56.1454C57.6746 57.0376 57.6275 57.9804 57.305 58.8449C57.218 59.0699 57.1062 59.2844 56.9715 59.4846C56.9288 59.5606 56.8747 59.6296 56.8111 59.6893C56.9798 59.4068 57.1215 59.1091 57.2344 58.8001C57.519 57.948 57.5436 57.0307 57.305 56.1646C56.923 54.8811 56.1301 53.7577 55.0475 52.9662C53.7818 51.9382 52.1901 51.3938 50.5582 51.4309C49.7199 51.4821 48.9091 51.7487 48.2046 52.205C47.5527 52.6301 47.0382 53.2344 46.7231 53.9449C46.4498 54.5967 46.3166 55.2984 46.3319 56.0047C46.3382 56.6213 46.4266 57.2344 46.5949 57.8278C46.8508 58.6915 47.1835 59.5307 47.5889 60.3354L47.9096 60.9751C47.9427 61.068 47.9642 61.1647 47.9737 61.2629Z" fill="#455A64"/>
<path d="M70.9466 65.6573C70.9466 65.6573 71.3635 65.3183 71.915 64.6722C72.6257 63.8267 73.1188 62.8211 73.3516 61.7424C73.5707 60.6611 73.5178 59.5424 73.1976 58.4864C72.9539 57.674 72.6782 57.207 72.7102 57.207C72.7954 57.2985 72.8667 57.402 72.9219 57.5141C73.0848 57.8133 73.2221 58.1258 73.3323 58.448C73.7021 59.5222 73.7752 60.6759 73.5438 61.7879C73.3125 62.9 72.7853 63.9294 72.0176 64.7682C71.7877 65.0213 71.5367 65.2545 71.2673 65.4654C71.1708 65.5453 71.0627 65.61 70.9466 65.6573Z" fill="#455A64"/>
<path d="M66.8483 65.5295C66.8483 65.5295 67.0727 65.4271 67.4319 65.1841C67.9288 64.8428 68.3216 64.3713 68.567 63.8215L68.753 63.3929L68.7145 63.8599C68.6568 64.4996 68.5927 65.2224 68.5221 66.0093L68.3746 65.9197C69.0185 65.4809 69.5688 64.9192 69.9937 64.267C70.4186 63.6148 70.7097 62.8851 70.8501 62.12C70.9731 61.4217 70.9731 60.7073 70.8501 60.009C70.7093 59.3679 70.4941 58.7453 70.2088 58.1539C70.2088 58.1539 70.2409 58.1859 70.2922 58.2626C70.3656 58.3736 70.432 58.4889 70.491 58.6081C70.7152 59.043 70.8813 59.5054 70.9848 59.9834C71.2231 61.1324 71.1125 62.3263 70.6669 63.4122C70.2214 64.4982 69.4612 65.4269 68.4836 66.0796L68.3169 66.1884V65.9901C68.4003 65.2033 68.4772 64.474 68.5478 63.8471L68.6953 63.8855C68.426 64.4525 67.9984 64.93 67.4639 65.2608C67.3177 65.3461 67.1655 65.4209 67.0086 65.4847C66.9582 65.5088 66.9039 65.524 66.8483 65.5295Z" fill="#455A64"/>
<path d="M65.5974 56.0749C65.3379 55.585 64.985 55.1504 64.5584 54.7955C64.0854 54.4201 63.529 54.1635 62.9359 54.0471C62.2116 53.9096 61.4632 53.9761 60.7746 54.239C60.0801 54.4982 59.4578 54.9193 58.9597 55.4672C58.552 55.9159 58.2206 56.428 57.9785 56.9832C57.7732 57.5046 57.6102 58.0415 57.4911 58.5889C57.4775 58.4367 57.4884 58.2834 57.5231 58.1347C57.5873 57.7209 57.6969 57.3155 57.8502 56.9257C58.0805 56.3459 58.408 55.8095 58.8186 55.3393C59.3335 54.7663 59.9807 54.3271 60.7041 54.0599C61.4282 53.786 62.2152 53.7217 62.9744 53.8744C63.5919 54.0043 64.1672 54.2857 64.6482 54.6932C64.97 54.9676 65.2375 55.2995 65.437 55.6719C65.4878 55.7738 65.5328 55.8784 65.5717 55.9853C65.5974 56.0301 65.6038 56.0685 65.5974 56.0749Z" fill="#455A64"/>
<path d="M64.5455 52.6525C64.1511 52.4494 63.7362 52.2886 63.3078 52.1727C62.2582 51.9487 61.1631 52.1028 60.2166 52.6077C59.2848 53.1403 58.5258 53.9285 58.0297 54.8786C57.6385 55.6078 57.5102 56.1132 57.4781 56.1004C57.4798 55.9783 57.5015 55.8573 57.5423 55.7422C57.634 55.4229 57.7542 55.1125 57.9014 54.8146C58.3809 53.8145 59.1551 52.9843 60.1204 52.435C61.1013 51.9056 62.2461 51.764 63.327 52.0384C63.6501 52.1234 63.959 52.2548 64.2441 52.4286C64.3562 52.4862 64.4581 52.5618 64.5455 52.6525Z" fill="#455A64"/>
<path d="M50.0703 264.472L50.5256 276.773C50.5256 276.773 38.1417 281.366 38.0006 283.65H61.9476L62.031 264.459L50.0703 264.472Z" fill="#263238"/>
<path d="M57.9269 275.737C58.1582 275.806 58.3558 275.958 58.4814 276.163C58.607 276.369 58.6516 276.614 58.6067 276.85C58.5445 277.083 58.3956 277.282 58.1904 277.408C57.9853 277.534 57.7395 277.577 57.5036 277.528C57.2603 277.453 57.0537 277.29 56.9235 277.072C56.7932 276.853 56.7486 276.594 56.7981 276.345C56.8852 276.109 57.0612 275.916 57.2888 275.807C57.5164 275.698 57.7775 275.682 58.0167 275.763" fill="#E0E0E0"/>
<path d="M61.9487 283.631L61.8846 281.712L38.9509 282.454C38.9509 282.454 37.8799 282.921 38.0017 283.669L61.9487 283.631Z" fill="#263238"/>
<path d="M50.1348 276.658C50.1348 276.774 50.7248 276.825 51.302 277.196C51.8792 277.567 52.1806 278.066 52.2896 278.015C52.3986 277.963 52.2255 277.298 51.52 276.857C50.8146 276.415 50.1091 276.543 50.1348 276.658Z" fill="white"/>
<path d="M47.627 277.695C47.627 277.81 48.108 278.002 48.5056 278.501C48.9032 279 49.0187 279.511 49.1469 279.505C49.2752 279.499 49.3329 278.865 48.8327 278.226C48.3325 277.586 47.627 277.579 47.627 277.695Z" fill="white"/>
<path d="M46.2039 280.695C46.3065 280.695 46.4732 280.132 46.2039 279.498C45.9345 278.865 45.3573 278.603 45.306 278.699C45.2547 278.795 45.5946 279.14 45.8319 279.665C46.0692 280.189 46.1141 280.682 46.2039 280.695Z" fill="white"/>
<path d="M50.3472 273.837C50.3985 273.946 50.9308 273.786 51.5913 273.837C52.2519 273.889 52.7714 274.087 52.8291 273.984C52.8868 273.882 52.393 273.473 51.617 273.428C50.841 273.383 50.2894 273.748 50.3472 273.837Z" fill="white"/>
<path d="M77.539 265.598L78.4881 280.465L75.8459 292.44C75.8015 292.645 75.8 292.857 75.8414 293.063C75.8829 293.269 75.9664 293.464 76.0867 293.636C76.207 293.808 76.3616 293.954 76.5409 294.064C76.7201 294.174 76.9202 294.246 77.1285 294.276C77.3686 294.312 77.614 294.29 77.8439 294.213C78.0739 294.135 78.2816 294.003 78.4497 293.828C80.6366 291.557 88.6467 283.158 88.512 282.077C88.3645 280.797 88.5505 266.334 88.5505 266.334L77.539 265.598Z" fill="#263238"/>
<path d="M77.1283 294.275L88.4733 281.072V281.712C88.4957 282.257 88.3229 282.792 87.9859 283.222C87.088 284.367 84.5292 287.488 78.4687 293.834C78.2954 294.015 78.0801 294.15 77.8418 294.228C77.6036 294.307 77.3497 294.325 77.1027 294.282L77.1283 294.275Z" fill="#263238"/>
<g opacity="0.6">
<path d="M85.2341 276.396C85.0542 276.537 84.9335 276.739 84.8955 276.964C84.8575 277.189 84.9051 277.42 85.0289 277.611C85.1649 277.793 85.3655 277.917 85.5897 277.956C85.8139 277.995 86.0446 277.947 86.2346 277.822C86.4204 277.672 86.5441 277.458 86.582 277.222C86.6198 276.986 86.5692 276.744 86.4398 276.543C86.2796 276.364 86.0554 276.255 85.8155 276.24C85.5757 276.224 85.3392 276.303 85.1572 276.46" fill="white"/>
</g>
<path d="M80.2704 287.635C79.8903 287.185 79.4292 286.81 78.9108 286.529C78.3553 286.334 77.7675 286.247 77.1792 286.273C77.1792 286.234 77.3524 286.113 77.6987 286.049C78.1559 285.979 78.6237 286.041 79.0466 286.228C79.4694 286.415 79.8296 286.719 80.0844 287.104C80.2704 287.418 80.3024 287.616 80.2704 287.635Z" fill="white"/>
<path d="M79.2889 289.67C78.8516 289.448 78.4019 289.252 77.9421 289.081C77.4551 289.014 76.9649 288.971 76.4734 288.953C76.6983 288.803 76.9554 288.708 77.224 288.676C77.4925 288.644 77.765 288.675 78.019 288.768C78.9105 288.985 79.3658 289.625 79.2889 289.67Z" fill="white"/>
<path d="M82.143 285C81.4964 284.601 80.8211 284.25 80.1228 283.951C79.3898 283.758 78.644 283.617 77.891 283.529C78.6666 283.343 79.4792 283.383 80.2327 283.644C80.9863 283.905 81.6491 284.375 82.143 285Z" fill="white"/>
<path d="M82.2333 280.458C82.1948 280.548 81.3547 280.234 80.3093 280.241C79.264 280.247 78.3854 280.541 78.3854 280.445C78.9746 280.094 79.6484 279.908 80.335 279.908C81.0216 279.908 81.6954 280.094 82.2846 280.445L82.2333 280.458Z" fill="white"/>
<path d="M82.0603 276.083C81.4021 275.902 80.7228 275.809 80.0401 275.808C79.3653 275.912 78.7075 276.105 78.0841 276.383C78.0841 276.383 78.2124 276.159 78.5459 275.948C78.9925 275.681 79.4953 275.521 80.0145 275.481C80.5333 275.441 81.0544 275.524 81.5344 275.724C81.9 275.903 82.0795 276.051 82.0603 276.083Z" fill="white"/>
<path d="M80.0338 274.976C79.9757 274.794 79.9603 274.602 79.9889 274.413C80.0194 273.896 80.15 273.39 80.3737 272.923C80.5129 272.568 80.7624 272.268 81.0856 272.065C81.1999 272.013 81.3272 271.996 81.4515 272.015C81.5758 272.034 81.6916 272.09 81.7846 272.174C81.9494 272.347 82.0433 272.575 82.0476 272.814C82.0349 273.315 81.8473 273.797 81.5172 274.175C81.1871 274.553 80.7351 274.805 80.239 274.887C79.7462 274.956 79.2438 274.878 78.7953 274.663C78.3468 274.448 77.9721 274.105 77.7186 273.677C77.6574 273.57 77.6196 273.45 77.6074 273.327C77.5953 273.203 77.6091 273.079 77.6481 272.961C77.7072 272.845 77.8002 272.75 77.9148 272.689C78.0293 272.627 78.16 272.601 78.2894 272.616C78.6586 272.68 79.0039 272.841 79.2899 273.083C79.7086 273.39 80.0691 273.769 80.3545 274.202C80.5597 274.503 80.6238 274.695 80.6046 274.701C80.195 274.156 79.7066 273.676 79.1552 273.275C78.8973 273.073 78.5931 272.939 78.2702 272.884C78.202 272.875 78.1328 272.889 78.0727 272.922C78.0127 272.956 77.965 273.007 77.9367 273.07C77.8979 273.231 77.9232 273.4 78.0072 273.543C78.2367 273.904 78.5655 274.192 78.9543 274.373C79.3431 274.553 79.7757 274.618 80.2005 274.56C80.6199 274.491 81.0032 274.282 81.2876 273.967C81.572 273.652 81.7405 273.25 81.7654 272.827C81.7678 272.656 81.7087 272.49 81.5986 272.36C81.5517 272.309 81.4894 272.274 81.4212 272.262C81.353 272.249 81.2825 272.259 81.2203 272.289C80.9366 272.455 80.7123 272.706 80.5789 273.006C80.2809 273.625 80.0962 274.292 80.0338 274.976Z" fill="white"/>
<path d="M39.5782 160.498C38.3076 165.567 37.7976 170.797 38.0647 176.016C38.2378 179.33 48.903 274.976 48.903 274.976L62.4606 273.761L60.1197 184.332L60.6841 184.838C60.6841 184.838 68.7648 222.464 69.3035 228.413C69.7845 233.755 76.2298 276.703 76.2298 276.703L89.3897 276.063L86.4075 221.767L82.4185 172.511L80.8216 158.156L39.5782 160.498Z" fill="#263238"/>
<path d="M62.73 176.624C62.5298 176.761 62.3146 176.875 62.0886 176.963C61.4909 177.25 60.8565 177.455 60.2032 177.571C59.7427 177.65 59.272 177.65 58.8115 177.571C58.2737 177.466 57.776 177.214 57.3749 176.841C56.9644 176.401 56.673 175.864 56.5284 175.281C56.3681 174.692 56.2783 174.078 56.1692 173.458C55.746 170.969 55.4702 168.698 55.3163 167.061C55.2393 166.242 55.1944 165.57 55.1688 165.11C55.1399 164.869 55.1399 164.627 55.1688 164.387C55.2355 164.618 55.2785 164.856 55.297 165.097C55.3612 165.621 55.4445 166.274 55.5407 167.016C55.7524 168.66 56.0602 170.918 56.4835 173.413C56.6951 174.641 56.8362 175.888 57.5866 176.611C57.9329 176.916 58.3426 177.14 58.7863 177.267C59.2299 177.394 59.6963 177.421 60.1519 177.347C60.7925 177.249 61.4205 177.082 62.0245 176.848C62.249 176.743 62.4861 176.668 62.73 176.624Z" fill="#455A64"/>
<path d="M58.4525 164.867C58.4525 164.867 58.5551 164.79 58.7668 164.777C59.0715 164.781 59.3665 164.884 59.6069 165.071C59.7915 165.208 59.9423 165.386 60.0479 165.59C60.1534 165.793 60.211 166.019 60.2161 166.248C60.1873 166.531 60.0781 166.8 59.9015 167.024C59.7249 167.247 59.4881 167.415 59.2189 167.509C58.9497 167.603 58.6593 167.619 58.3816 167.554C58.1038 167.489 57.8504 167.347 57.6509 167.144C57.5145 166.963 57.4206 166.755 57.3762 166.533C57.3318 166.312 57.338 166.083 57.3943 165.864C57.4582 165.567 57.6264 165.301 57.8689 165.116C58.0421 164.988 58.1575 164.975 58.1639 164.988C57.8838 165.227 57.6901 165.55 57.6124 165.909C57.5748 166.095 57.5789 166.286 57.6243 166.47C57.6698 166.653 57.7555 166.824 57.8753 166.971C58.0318 167.135 58.2344 167.248 58.4566 167.295C58.6787 167.342 58.9098 167.32 59.1195 167.233C59.3353 167.169 59.5273 167.042 59.6711 166.869C59.8149 166.696 59.9041 166.485 59.9276 166.261C59.9263 166.071 59.8844 165.884 59.8048 165.712C59.7252 165.54 59.6096 165.387 59.4658 165.263C59.1803 165.025 58.8245 164.885 58.4525 164.867Z" fill="#455A64"/>
<path d="M82.2341 171.634C82.0652 171.682 81.89 171.703 81.7146 171.698C81.2428 171.733 80.7691 171.733 80.2973 171.698C77.1517 171.445 74.1896 170.119 71.9088 167.943C71.5653 167.617 71.2459 167.266 70.9532 166.894C70.748 166.632 70.6454 166.478 70.6646 166.466C70.6839 166.453 71.1777 166.997 72.0627 167.777C74.3763 169.817 77.2572 171.106 80.323 171.474C81.4902 171.577 82.2277 171.558 82.2341 171.634Z" fill="#455A64"/>
<path d="M45.6782 164.847C45.4639 165.388 45.1793 165.897 44.8316 166.363C44.0674 167.535 43.1629 168.609 42.1381 169.562C41.1163 170.512 39.9812 171.332 38.7583 172.005C38.2661 172.309 37.7355 172.545 37.1807 172.709C37.6518 172.385 38.1399 172.086 38.6429 171.814C39.8102 171.09 40.9074 170.259 41.92 169.332C42.9238 168.394 43.8364 167.364 44.6457 166.255C44.9618 165.766 45.3065 165.296 45.6782 164.847Z" fill="#455A64"/>
<path d="M32.2163 110.819C30.2026 116.685 30.427 116.18 26.656 133.707C25.9634 136.944 27.1883 142.023 30.1128 143.558C33.0372 145.094 38.2319 143.405 39.9699 140.59L42.7661 114.139L32.2163 110.819Z" fill="#FFBF9D"/>
<path d="M80.8297 142.606L80.7464 128.667L80.8041 127.298L94.9837 123.997C94.9837 123.997 92.2004 114.85 89.6479 105.018C88.1729 99.3374 83.2668 96.4844 82.0803 95.8703L81.8174 95.7487L68.17 89.9915C65.4124 92.9213 61.3977 95.2753 57.5305 94.1495C55.3285 93.4322 53.3788 92.1002 51.9125 90.3114L42.7224 93.465C40.0659 94.3743 37.8141 96.1856 36.3605 98.5825C34.4365 102.005 28.2862 117.581 28.158 117.901L39.5478 118.918C39.5478 118.918 37.5277 155.777 38.2652 162.359C38.2652 162.359 41.0357 164.278 48.0133 164.598C62.1737 165.238 83.2411 164.259 83.2411 164.259C82.9076 162.135 82.5613 158.585 82.3689 156.788L80.8297 142.606Z" fill="#3F4E9B"/>
<path d="M39.9563 105.222C40.014 105.222 39.7126 114.011 39.2829 124.848C38.8532 135.684 38.4556 144.473 38.4171 144.473C38.3786 144.473 38.6608 135.684 39.0584 124.841C39.456 113.998 39.8985 105.216 39.9563 105.222Z" fill="#263238"/>
<path d="M79.2703 107.666C79.1741 107.666 79.4562 115.47 79.9116 125.085C80.3669 134.699 80.8158 142.49 80.9185 142.484C81.0211 142.478 80.7325 134.686 80.2771 125.065C79.8218 115.444 79.3729 107.666 79.2703 107.666Z" fill="#263238"/>
<path d="M95.053 130.631C94.5913 127.17 94.2065 124.112 94.2065 124.112L82.8679 126.741L83.3553 128.564L74.5884 119.679L73.1968 119.801L68.7845 124.374C68.7845 124.374 72.6324 132.479 74.8706 135.633C77.7822 139.74 82.3549 145.996 88.6206 145.471C94.4117 144.985 95.8803 136.836 95.053 130.631Z" fill="#FFBF9D"/>
<path d="M88.9094 132.703C88.2216 131.801 87.3792 131.028 86.4211 130.419C85.5332 129.711 84.5314 129.157 83.4582 128.782C83.4069 128.878 84.7408 129.633 86.203 130.701C87.6652 131.769 88.8389 132.78 88.9094 132.703Z" fill="#FF9A6C"/>
<path d="M59.2808 108.088L63.18 106.105L68.2336 107.704L70.7348 110.007L74.5827 119.679L77.6675 123.575L72.2226 130.611L68.7787 124.343C68.7787 124.343 65.8607 123.063 64.6871 121.234C63.5135 119.404 62.994 118.393 62.994 118.393C62.994 118.393 61.3073 117.587 60.9931 116.807C60.808 116.371 60.7079 115.905 60.6981 115.432L61.551 114.184C61.4969 113.642 61.5853 113.095 61.8076 112.598C61.9691 112.366 62.1908 112.183 62.4489 112.067C62.4489 112.067 62.1988 111.018 62.59 110.64C63.3292 110.207 64.1115 109.851 64.9244 109.579L63.2249 108.613C63.2249 108.613 59.4924 109.809 59.2808 108.088Z" fill="#FFBF9D"/>
<path d="M65.0649 111.6C65.0649 111.651 64.4685 111.664 63.7823 111.818C63.0961 111.971 62.4996 112.189 62.4996 112.144C62.8849 111.887 63.3234 111.721 63.7823 111.658C64.2002 111.543 64.6384 111.524 65.0649 111.6Z" fill="#FF9A6C"/>
<path d="M63.8976 113.768C63.5244 113.838 63.1476 113.887 62.7689 113.916C62.4011 114.002 62.0285 114.066 61.653 114.107C61.983 113.904 62.3566 113.781 62.7433 113.749C63.1245 113.668 63.5193 113.675 63.8976 113.768Z" fill="#FF9A6C"/>
<path d="M62.2492 117.172C62.2043 117.172 62.1722 116.948 62.1786 116.673C62.185 116.398 62.2235 116.18 62.2684 116.18C62.3133 116.18 62.3454 116.404 62.3454 116.679C62.3454 116.954 62.2941 117.172 62.2492 117.172Z" fill="#FF9A6C"/>
<path d="M62.9938 118.221C62.9428 117.899 62.8201 117.593 62.6346 117.325C62.4148 117.085 62.1487 116.891 61.8522 116.756C61.8522 116.756 61.9741 116.724 62.1601 116.756C62.4137 116.831 62.6377 116.983 62.8014 117.191C62.9573 117.39 63.0529 117.63 63.0772 117.882C63.0579 118.106 63.013 118.221 62.9938 118.221Z" fill="#FF9A6C"/>
<path d="M66.0404 115.118C65.8585 114.862 65.6275 114.644 65.3606 114.478C65.0698 114.345 64.7566 114.267 64.4371 114.248C64.4371 114.248 64.5397 114.178 64.7321 114.165C64.9809 114.153 65.2282 114.211 65.4458 114.332C65.6634 114.453 65.8427 114.632 65.9634 114.849C66.0532 114.996 66.0596 115.112 66.0404 115.118Z" fill="#FF9A6C"/>
<path d="M67.8165 112.969C67.7716 112.969 67.6177 112.585 67.1752 112.329C66.9075 112.188 66.6199 112.089 66.3223 112.035C66.3223 112.035 66.4249 111.977 66.6044 111.977C66.8326 111.993 67.0532 112.065 67.2458 112.188C67.4452 112.311 67.6071 112.486 67.7139 112.694C67.8294 112.853 67.8358 112.962 67.8165 112.969Z" fill="#FF9A6C"/>
<path d="M69.0082 111.914C69.0082 111.914 69.0082 111.779 68.9633 111.581C68.9313 111.324 68.8341 111.08 68.6811 110.871C68.524 110.663 68.3166 110.498 68.0783 110.391C67.8923 110.308 67.764 110.282 67.7704 110.257C67.7768 110.231 67.9115 110.218 68.1167 110.257C68.3964 110.339 68.6417 110.51 68.8158 110.743C68.9863 110.977 69.0783 111.259 69.0787 111.549C69.0787 111.792 69.0274 111.92 69.0082 111.914Z" fill="#FF9A6C"/>
<path d="M67.3544 109.387C67.3544 109.444 66.5399 109.457 65.5587 109.604C64.5775 109.751 63.8335 110.103 63.8079 110.058C64.326 109.716 64.9163 109.497 65.533 109.419C65.9572 109.351 66.3862 109.319 66.8157 109.323C66.9976 109.312 67.18 109.334 67.3544 109.387Z" fill="#FF9A6C"/>
<g opacity="0.3">
<path d="M56.2607 131.225C56.2076 130.097 55.8773 128.998 55.2987 128.027C54.1572 126.421 51.919 126.108 49.9565 126.178C47.9941 126.249 45.9419 126.658 44.0948 125.986L38.5667 142.35C40.6397 141.83 42.4276 140.524 43.5497 138.71C44.1141 137.795 44.5245 136.733 45.3775 136.081C46.5575 135.179 48.1865 135.307 49.6743 135.294C51.2261 135.276 52.7684 135.05 54.2598 134.622C54.9116 134.494 55.5036 134.157 55.9465 133.663C56.4531 132.985 56.3762 132.063 56.2607 131.225Z" fill="black"/>
</g>
<path d="M42.0287 112.073L43.7474 130.285C43.752 130.699 43.8571 131.105 44.0537 131.469C44.2502 131.834 44.5325 132.145 44.8761 132.377L55.9518 132.147C56.6151 131.258 56.9175 130.152 56.7983 129.05L55.567 111.619C55.4964 110.57 55.1052 109.815 54.6306 109.802L42.965 109.534C42.3686 109.521 41.9068 110.775 42.0287 112.073Z" fill="#263238"/>
<path d="M40.4191 115.732C40.203 115.447 40.0893 115.098 40.0963 114.741C40.1032 114.383 40.2305 114.039 40.4576 113.762C40.6954 113.488 40.9914 113.27 41.3242 113.124C41.657 112.978 42.0182 112.907 42.3816 112.918C43.0994 112.938 43.8059 113.101 44.4595 113.397C45.2628 113.734 46.0317 114.148 46.7554 114.632C47.0342 114.773 47.2803 114.97 47.478 115.211C47.6758 115.453 47.8206 115.732 47.9034 116.033C47.9932 116.673 47.3069 117.312 46.7746 117.012C47.1518 117.182 47.4832 117.439 47.7418 117.761C48.0004 118.084 48.1789 118.462 48.2625 118.867C48.3587 119.641 47.929 120.05 47.1723 120.255C47.4565 120.374 47.6828 120.599 47.8027 120.883C47.9225 121.166 47.9264 121.485 47.8136 121.771C47.6348 122.041 47.3646 122.237 47.0524 122.324C46.7402 122.411 46.4071 122.383 46.1141 122.244C45.5333 121.945 45.0372 121.505 44.6711 120.965C45.0354 121.845 45.1051 122.819 44.8699 123.741C43.2153 123.102 41.5863 121.304 42.0802 119.564C41.6747 119.231 41.3916 118.774 41.2755 118.263C41.1594 117.752 41.2169 117.218 41.4388 116.743C41.0592 116.567 40.7347 116.291 40.4997 115.945C40.2648 115.599 40.1284 115.196 40.1049 114.779" fill="#FFBF9D"/>
<path d="M40.2393 114.146L40.1046 121.931L38.078 124.969L28.7981 133.253C28.7981 133.253 30.1705 144.506 34.3648 143.277C38.559 142.049 39.5659 141.25 42.0606 136.714C43.3818 134.277 44.2027 130.317 44.9658 128.059C45.4148 126.729 45.0236 122.443 45.0236 122.443L40.2393 114.146Z" fill="#FFBF9D"/>
<path d="M47.1726 120.268C46.921 120.097 46.683 119.906 46.4607 119.698C45.9193 119.227 45.2797 118.882 44.5881 118.688C44.2081 118.602 43.8137 118.602 43.4337 118.688C43.1226 118.756 42.831 118.894 42.5807 119.091C42.3581 119.283 42.1676 119.51 42.0164 119.762C42.0164 119.762 42.0164 119.673 42.0869 119.526C42.1851 119.32 42.3249 119.137 42.4973 118.988C42.7553 118.764 43.0631 118.604 43.3952 118.521C43.8 118.426 44.2217 118.426 44.6265 118.521C45.3494 118.72 46.0108 119.096 46.5505 119.615C46.7846 119.806 46.9937 120.025 47.1726 120.268Z" fill="#FF9A6C"/>
<path d="M47.0565 117.095C46.7532 117.003 46.4624 116.874 46.1908 116.711C45.9342 116.583 45.6264 116.423 45.2737 116.282C44.8853 116.141 44.4865 116.03 44.0808 115.95C43.6802 115.866 43.2681 115.851 42.8623 115.905C42.5373 115.961 42.2286 116.088 41.958 116.276C41.6999 116.458 41.4816 116.691 41.3167 116.961C41.3258 116.875 41.3519 116.792 41.3937 116.717C41.5025 116.506 41.6556 116.321 41.8426 116.174C42.1234 115.955 42.4537 115.808 42.8046 115.745C43.228 115.662 43.6638 115.662 44.0872 115.745C44.5037 115.826 44.9116 115.946 45.3057 116.103C45.6232 116.239 45.9316 116.395 46.2292 116.57C46.5165 116.726 46.7929 116.902 47.0565 117.095Z" fill="#FF9A6C"/>
<path d="M29.7982 137.731C29.5695 136.782 29.5303 135.797 29.6828 134.833C29.8673 133.792 30.2388 132.793 30.7794 131.884C31.4571 130.781 32.2812 129.774 33.2293 128.891C34.2298 127.925 35.2559 127.087 36.173 126.332C36.9925 125.636 37.776 124.9 38.5202 124.125C39.0168 123.579 39.4692 122.995 39.8734 122.379C40.0274 122.161 40.1564 121.927 40.2582 121.681C40.0825 121.883 39.9218 122.096 39.7772 122.321C39.3401 122.89 38.8667 123.431 38.3599 123.939C37.7186 124.579 36.9169 125.308 35.987 126.082C35.0571 126.856 34.063 127.694 33.0177 128.641C32.0483 129.544 31.2126 130.58 30.5357 131.718C29.9791 132.663 29.607 133.705 29.4391 134.788C29.3329 135.512 29.359 136.249 29.516 136.963C29.5578 137.157 29.6135 137.347 29.6828 137.533C29.7597 137.661 29.7854 137.731 29.7982 137.731Z" fill="#FF9A6C"/>
</svg>
