<svg width="24" height="24" viewBox="0 0 24 24" fill="none" xmlns="http://www.w3.org/2000/svg">
<g id="vuesax/linear/microphone-2">
<g id="microphone-2">
<path id="Vector" d="M12 15.5C14.21 15.5 16 13.71 16 11.5V6C16 3.79 14.21 2 12 2C9.79 2 8 3.79 8 6V11.5C8 13.71 9.79 15.5 12 15.5Z" stroke="#CECECE" stroke-width="1.5" stroke-linecap="round" stroke-linejoin="round"/>
<path id="Vector_2" d="M4.34998 9.65002V11.35C4.34998 15.57 7.77998 19 12 19C16.22 19 19.65 15.57 19.65 11.35V9.65002" stroke="#CECECE" stroke-width="1.5" stroke-linecap="round" stroke-linejoin="round"/>
<path id="Vector_3" d="M10.61 6.43C11.51 6.1 12.49 6.1 13.39 6.43" stroke="#CECECE" stroke-width="1.5" stroke-linecap="round" stroke-linejoin="round"/>
<path id="Vector_4" d="M11.2 8.54995C11.73 8.40995 12.28 8.40995 12.81 8.54995" stroke="#CECECE" stroke-width="1.5" stroke-linecap="round" stroke-linejoin="round"/>
<path id="Vector_5" d="M12 19V22" stroke="#CECECE" stroke-width="1.5" stroke-linecap="round" stroke-linejoin="round"/>
</g>
</g>
</svg>
